<?xml version="1.0" encoding="UTF-8"?>
<!DOCTYPE svg PUBLIC "-//W3C//DTD SVG 1.1//EN" "http://www.w3.org/Graphics/SVG/1.1/DTD/svg11.dtd">
<!-- Creator: CorelDRAW -->
<svg xmlns="http://www.w3.org/2000/svg" xml:space="preserve" width="5in" height="3.33333in" style="shape-rendering:geometricPrecision; text-rendering:geometricPrecision; image-rendering:optimizeQuality; fill-rule:evenodd; clip-rule:evenodd"
viewBox="0 0 5 3.33333"
 xmlns:xlink="http://www.w3.org/1999/xlink">
 <defs>
  <style type="text/css">
   <![CDATA[
    .fil17 {fill:none}
    .fil16 {fill:#444}
    .fil13 {fill:#333}
    .fil7 {fill:#062236}
    .fil12 {fill:#192531}
    .fil14 {fill:#325589}
    .fil25 {fill:#37A655}
    .fil28 {fill:#69B671}
    .fil27 {fill:#706942}
    .fil39 {fill:#7E357A}
    .fil31 {fill:#8196F3}
    .fil20 {fill:#8686A2}
    .fil23 {fill:#8D633D}
    .fil38 {fill:#964591}
    .fil1 {fill:#ACD8D3}
    .fil37 {fill:#B62439}
    .fil22 {fill:#C09F72}
    .fil21 {fill:#C68F67}
    .fil41 {fill:#D2981B}
    .fil19 {fill:#D4CCDB}
    .fil11 {fill:#D5938C}
    .fil0 {fill:#DAEDE9}
    .fil15 {fill:#E67257}
    .fil10 {fill:#EDA39C}
    .fil24 {fill:#F6BD06}
    .fil8 {fill:#F8CC80}
    .fil35 {fill:#FA3700}
    .fil18 {fill:#FA795B}
    .fil9 {fill:#FADFAF}
    .fil40 {fill:#FEC226}
    .fil32 {fill:white}
    .fil33 {fill:#03365E;fill-rule:nonzero}
    .fil29 {fill:#108036;fill-rule:nonzero}
    .fil26 {fill:#663333;fill-rule:nonzero}
    .fil34 {fill:#FA795B;fill-rule:nonzero}
    .fil36 {fill:white;fill-rule:nonzero}
    .fil30 {fill:#8196F3;fill-opacity:0.501961}
    .fil4 {fill:white;fill-opacity:0.501961}
    .fil3 {fill:white;fill-rule:nonzero;fill-opacity:0.501961}
    .fil6 {fill:url(#id0);fill-opacity:0.501961}
    .fil2 {fill:url(#id1);fill-rule:nonzero;fill-opacity:0.501961}
    .fil5 {fill:url(#id2);fill-rule:nonzero;fill-opacity:0.501961}
   ]]>
  </style>
  <linearGradient id="id0" gradientUnits="userSpaceOnUse" x1="1.77885" y1="2.07843" x2="1.77885" y2="2.50254">
   <stop offset="0" style="stop-color:#72AEE5"/>
   <stop offset="1" style="stop-color:#5973DC"/>
  </linearGradient>
  <linearGradient id="id1" gradientUnits="userSpaceOnUse" xlink:href="#id0" x1="2.49996" y1="0.445228" x2="2.49996" y2="2.82133">
  </linearGradient>
  <linearGradient id="id2" gradientUnits="userSpaceOnUse" xlink:href="#id0" x1="1.77884" y1="2.0878" x2="1.77884" y2="2.69095">
  </linearGradient>
 </defs>
 <g id="Layer_x0020_1">
  <metadata id="CorelCorpID_0Corel-Layer"/>
  <!-- <rect class="fil0" width="5" height="3.33333"/> -->
  <!-- <rect class="fil1" y="2.96952" width="5" height="0.363811"/> -->
  <g id="_419095872">
   <path id="_419098248" class="fil2" d="M1.00225 0.462496l2.9955 0c0.0458898,0 0.0875984,0.0109055 0.117776,0.0284291 0.0301772,0.0175236 0.0489528,0.0417717 0.0489528,0.0684094l0 2.21466c0,0.0266378 -0.0187756,0.0508858 -0.0489528,0.0684094 -0.0301772,0.0175236 -0.0718858,0.0284291 -0.117776,0.0284291l-2.9955 0c-0.0458898,0 -0.0875984,-0.0109055 -0.117776,-0.0284291 -0.0301772,-0.0175236 -0.0489528,-0.0417717 -0.0489528,-0.0684094l0 -2.21466c0,-0.0266378 0.0187756,-0.0508858 0.0489528,-0.0684094 0.0301772,-0.0175236 0.0718858,-0.0284291 0.117776,-0.0284291z"/>
   <path id="_419098224" class="fil3" d="M2.84091 0.963264l1.09818 0c0.0166457,0 0.0318031,0.00766142 0.0427598,0.0199882 0.0109567,0.0123228 0.0177717,0.0293701 0.0177717,0.0480906l0 0.753791c0,0.0187205 -0.00681496,0.0357559 -0.0177717,0.0480787 -0.0109567,0.0123268 -0.0261024,0.0199882 -0.0427598,0.0199882l-1.09818 0c-0.0166575,0 -0.0318031,-0.00766142 -0.0427598,-0.0199882 -0.0109606,-0.0123228 -0.0177717,-0.0293583 -0.0177717,-0.0480787l0 -0.753791c0,-0.0187205 0.00681102,-0.0357677 0.0177717,-0.0480906 0.0109567,-0.0123268 0.0261024,-0.0199882 0.0427598,-0.0199882zm1.09818 0.0389173l-1.09818 0c-0.00712992,0 -0.013622,0.00329528 -0.018311,0.00856693 -0.00468898,0.00527165 -0.00761811,0.0125906 -0.00761811,0.0205945l0 0.753791c0,0.00800394 0.00292913,0.015311 0.00761811,0.0205827 0.00468898,0.00527165 0.0111811,0.00856693 0.018311,0.00856693l1.09818 0c0.00712598,0 0.013622,-0.00329528 0.018311,-0.00856693 0.00468898,-0.00527165 0.00761811,-0.0125787 0.00761811,-0.0205827l0 -0.753791c0,-0.00800394 -0.00292913,-0.0153228 -0.00761811,-0.0205945 -0.00468898,-0.00527165 -0.0111929,-0.00856693 -0.018311,-0.00856693z"/>
   <path id="_419097528" class="fil4" d="M3.88319 1.70573c-0.0131339,-0.0765906 -0.0604291,-0.37298 -0.109551,-0.378118 -0.128823,-0.0134803 -0.103484,0.104055 -0.186193,0.113665 -0.16437,0.0191024 -0.0748228,-0.104461 -0.212768,-0.162177 -0.135028,-0.0564961 -0.111449,0.302248 -0.308358,0.292378 -0.0834567,-0.00462598 -0.140484,0.144547 -0.135791,0.153134l0.937283 -0.000972441c0.0229961,-1.9685e-005 0.0193543,0.00532677 0.015378,-0.0179094z"/>
   <path id="_419097120" class="fil4" d="M3.036 1.11687c0.0547677,0 0.0991614,0.0511063 0.0991614,0.114146 0,0.0630433 -0.0443937,0.11415 -0.0991614,0.11415 -0.0547677,0 -0.0991614,-0.0511063 -0.0991614,-0.11415 0,-0.0630394 0.0443937,-0.114146 0.0991614,-0.114146z"/>
   <path id="_419097312" class="fil4" d="M0.982705 0.641791l2.99494 0c0.0120827,0 0.0219764,0.00988976 0.0219764,0.0219764l0 0.131886c0,0.0120866 -0.0098937,0.0219764 -0.0219764,0.0219764l-2.99494 0c-0.0120866,0 -0.0219803,-0.00988976 -0.0219803,-0.0219764l0 -0.131886c0,-0.0120866 0.0098937,-0.0219764 0.0219803,-0.0219764z"/>
   <path id="_419097144" class="fil4" d="M1.118 1.8532l1.3217 0c0.0668583,0 0.121551,0.0546969 0.121551,0.121551l0 0.643433c0,0.0668583 -0.0546929,0.121555 -0.121551,0.121555l-1.3217 0c-0.0668543,0 -0.121551,-0.0546969 -0.121551,-0.121555l0 -0.643433c0,-0.0668543 0.0546969,-0.121551 0.121551,-0.121551z"/>
   <path id="_419097432" class="fil5" d="M1.11831 1.90296l1.32109 0c0.0238465,0 0.0455354,0.00975591 0.0612362,0.0254606 0.0157047,0.0157008 0.0254606,0.0373898 0.0254606,0.0612362l0 0.624421c0,0.0238425 -0.00975591,0.0455354 -0.0254606,0.0612362 -0.0157008,0.0157047 -0.0373898,0.0254606 -0.0612362,0.0254606l-1.32109 0c-0.0238465,0 -0.0455354,-0.00975591 -0.0612402,-0.0254606 -0.0157008,-0.0157008 -0.0254567,-0.0373937 -0.0254567,-0.0612362l0 -0.624421c0,-0.0238465 0.00975591,-0.0455354 0.0254567,-0.0612362 0.0157047,-0.0157047 0.0373937,-0.0254606 0.0612402,-0.0254606zm1.32109 0.00995276l-1.32109 0c-0.0210984,0 -0.0402874,0.0086378 -0.0541969,0.0225472 -0.0139094,0.0139094 -0.0225472,0.0330984 -0.0225472,0.0541969l0 0.624421c0,0.0210984 0.0086378,0.0402874 0.0225472,0.0541929 0.0139094,0.0139094 0.0330984,0.0225472 0.0541969,0.0225472l1.32109 0c0.0210984,0 0.0402874,-0.0086378 0.0541969,-0.0225472 0.0139055,-0.0139055 0.0225472,-0.0330945 0.0225472,-0.0541929l0 -0.624421c0,-0.0210984 -0.00864173,-0.0402874 -0.0225472,-0.0541969 -0.0139094,-0.0139094 -0.0330984,-0.0225472 -0.0541969,-0.0225472z"/>
   <path id="_419097744" class="fil6" d="M1.66581 2.08866l0.279575 0.161409c0.0355433,0.0205236 0.0355354,0.072189 0,0.0927126l-0.279575 0.161413c-0.0355079,0.0205079 -0.0801929,-0.00544094 -0.0801929,-0.0463583l0 -0.322823c0,-0.0407205 0.0448543,-0.0667677 0.0801929,-0.0463543z"/>
   <g>
    <path id="_419096592" class="fil4" d="M3.36613 2.03554l-0.56187 0c-0.0131378,0 -0.023878,0.0107402 -0.023878,0.023874l0 3.93701e-006c0,0.0131299 0.0107402,0.023874 0.023878,0.023874l0.56187 0c0.0131299,0 0.0238701,-0.0107441 0.0238701,-0.023874l0 -3.93701e-006c0,-0.0131339 -0.0107402,-0.023874 -0.0238701,-0.023874z"/>
    <path id="_419096880" class="fil4" d="M3.65453 2.16683l-0.85028 0c-0.0131339,0 -0.023874,0.0107402 -0.023874,0.023874l0 3.93701e-006c0,0.0131299 0.0107402,0.023874 0.023874,0.023874l0.85028 0c0.0131339,0 0.023874,-0.0107441 0.023874,-0.023874l0 -3.93701e-006c0,-0.0131339 -0.0107402,-0.023874 -0.023874,-0.023874z"/>
    <path id="_419097000" class="fil4" d="M3.97574 2.29811l-1.17148 0c-0.0131378,0 -0.023878,0.0107441 -0.023878,0.023874l0 3.93701e-006c0,0.0131339 0.0107402,0.023874 0.023878,0.023874l1.17148 0c0.0131378,0 0.023878,-0.0107402 0.023878,-0.023874l0 -3.93701e-006c0,-0.0131299 -0.0107402,-0.023874 -0.023878,-0.023874z"/>
    <path id="_419096688" class="fil4" d="M3.97574 2.42941l-1.17148 0c-0.0131378,0 -0.023878,0.0107402 -0.023878,0.0238701l0 7.87402e-006c0,0.0131299 0.0107402,0.0238701 0.023878,0.0238701l1.17148 0c0.0131378,0 0.023878,-0.0107402 0.023878,-0.0238701l0 -7.87402e-006c0,-0.0131299 -0.0107402,-0.0238701 -0.023878,-0.0238701z"/>
    <path id="_419096520" class="fil4" d="M3.97574 2.56069l-1.17148 0c-0.0131378,0 -0.023878,0.0107402 -0.023878,0.023874l0 3.93701e-006c0,0.0131299 0.0107402,0.023874 0.023878,0.023874l1.17148 0c0.0131378,0 0.023878,-0.0107441 0.023878,-0.023874l0 -3.93701e-006c0,-0.0131339 -0.0107402,-0.023874 -0.023878,-0.023874z"/>
    <path id="_419096664" class="fil4" d="M3.97574 2.69198l-1.17148 0c-0.0131378,0 -0.023878,0.0107402 -0.023878,0.023874l0 3.93701e-006c0,0.0131339 0.0107402,0.023874 0.023878,0.023874l1.17148 0c0.0131378,0 0.023878,-0.0107402 0.023878,-0.023874l0 -3.93701e-006c0,-0.0131339 -0.0107402,-0.023874 -0.023878,-0.023874z"/>
   </g>
   <g>
    <path id="_419095968" class="fil4" d="M1.75498 0.963268l-0.734654 0c-0.0131339,0 -0.023874,0.0107441 -0.023874,0.023874l0 3.93701e-006c0,0.0131339 0.0107402,0.023874 0.023874,0.023874l0.734654 0c0.0131339,0 0.023874,-0.0107402 0.023874,-0.023874l0 -3.93701e-006c0,-0.0131299 -0.0107402,-0.023874 -0.023874,-0.023874z"/>
    <path id="_419096136" class="fil4" d="M2.12513 1.09456l-1.10481 0c-0.0131339,0 -0.0238701,0.0107402 -0.0238701,0.0238701l0 7.87402e-006c0,0.0131299 0.0107362,0.0238701 0.0238701,0.0238701l1.10481 0c0.0131339,0 0.023874,-0.0107402 0.023874,-0.0238701l0 -7.87402e-006c0,-0.0131299 -0.0107402,-0.0238701 -0.023874,-0.0238701z"/>
    <path id="_419095944" class="fil4" d="M2.53738 1.22585l-1.51705 0c-0.0131378,0 -0.023878,0.0107402 -0.023878,0.023874l0 3.93701e-006c0,0.0131299 0.0107402,0.023874 0.023878,0.023874l1.51705 0c0.0131339,0 0.023874,-0.0107441 0.023874,-0.023874l0 -3.93701e-006c0,-0.0131339 -0.0107402,-0.023874 -0.023874,-0.023874z"/>
    <path id="_419095704" class="fil4" d="M2.53738 1.35713l-1.51705 0c-0.0131378,0 -0.023878,0.0107402 -0.023878,0.023874l0 3.93701e-006c0,0.0131339 0.0107402,0.023874 0.023878,0.023874l1.51705 0c0.0131339,0 0.023874,-0.0107402 0.023874,-0.023874l0 -3.93701e-006c0,-0.0131339 -0.0107402,-0.023874 -0.023874,-0.023874z"/>
    <path id="_419096088" class="fil4" d="M2.53738 1.48842l-1.51705 0c-0.0131378,0 -0.023878,0.0107441 -0.023878,0.023874l0 3.93701e-006c0,0.0131339 0.0107402,0.023874 0.023878,0.023874l1.51705 0c0.0131339,0 0.023874,-0.0107402 0.023874,-0.023874l0 -3.93701e-006c0,-0.0131299 -0.0107402,-0.023874 -0.023874,-0.023874z"/>
    <path id="_419095560" class="fil4" d="M2.53738 1.61971l-1.51705 0c-0.0131378,0 -0.023878,0.0107402 -0.023878,0.023874l0 3.93701e-006c0,0.0131299 0.0107402,0.023874 0.023878,0.023874l1.51705 0c0.0131339,0 0.023874,-0.0107441 0.023874,-0.023874l0 -3.93701e-006c0,-0.0131339 -0.0107402,-0.023874 -0.023874,-0.023874z"/>
   </g>
  </g>
  <g id="_423470848">
   <g>
    <g>
     <g>
      <polygon id="_419095032" class="fil7" points="3.56409,2.53777 3.61752,2.53777 3.46614,3.0609 3.41272,3.0609 "/>
      <polygon id="_419095248" class="fil7" points="4.4915,2.42707 4.43807,2.42707 4.55383,3.05929 4.60726,3.05929 "/>
      <polygon id="_419095056" class="fil7" points="4.24989,2.54425 4.29319,2.54425 4.19936,3.0567 4.15606,3.0567 "/>
      <polygon id="_419095464" class="fil7" points="3.789,2.5342 3.74569,2.5342 3.83952,3.04665 3.88283,3.04665 "/>
     </g>
     <path id="_419094672" class="fil8" d="M4.20825 1.28116c0.931177,0.441559 0.371799,1.93673 -0.781252,1.20112l0.781252 -1.20112z"/>
     <path id="_419094744" class="fil9" d="M4.35126 1.43048c0.733343,1.04504 -1.30878,1.66936 -0.937197,0.634441 0.0642953,-0.179079 0.408126,-1.05715 0.799724,-0.779921 0.0452992,0.0320748 0.091248,0.0796102 0.137472,0.14548z"/>
    </g>
    <g>
     <polygon id="_419094216" class="fil10" points="3.9798,1.45939 3.98364,1.5738 3.87463,1.57224 3.87861,1.5333 3.91272,1.48441 "/>
     <path id="_419094072" class="fil11" d="M3.9798 1.45939l0.00125197 0.0270827c-0.0179843,0.0313543 -0.0469803,0.0625945 -0.0897323,0.0564134 -0.00472835,-0.000685039 -0.00915354,-0.00159843 -0.013315,-0.00269685l0.000602362 -0.0068937 0.0341142 -0.0488937 0.0670787 -0.0250118z"/>
     <path id="_419093880" class="fil10" d="M3.87876 1.20291c0.00430315,-0.00458661 0.152787,-0.00399213 0.132079,0.156925 0,0 0.0390157,-0.0231614 0.0292598,0.0353583 0,0 0,0.0207283 -0.0292598,0.0195079 0,0 -0.0336772,0.135177 -0.121689,0.122449 -0.0880079,-0.0127244 -0.0819134,-0.0968465 -0.0819134,-0.0968465l0 -0.143862c0,0 -0.0174724,-0.0985906 0.0715236,-0.0935315z"/>
     <path id="_419093640" class="fil12" d="M4.01176 1.3619c0.0115591,-0.00903937 0.0216772,-0.00666929 0.0273661,0.00229528l0.0150079 -0.0924843 0.0141535 0.0120551c-0.00225197,-0.00971654 -0.00596063,-0.0142126 -0.00375591,-0.0214606 0.000811024,-0.00264961 0.0061063,0.000401575 -0.00137008,-0.0159882 -0.00859449,-0.0188465 -0.0109213,-0.0264252 -0.0239213,-0.0362047 -0.0367402,-0.0276378 -0.0190472,-0.0198701 -0.0709921,-0.0480827 -0.0300118,-0.0162992 -0.103374,-0.0497205 -0.136815,-0.0230236l-0.0286142 0.0297598 0.00696457 -0.0210709c-0.021626,0.0135472 -0.0227362,0.060248 -0.0231772,0.0814094 -0.000527559,0.0253307 0.0155276,0.0767165 0.0207913,0.101118 0.0076378,-0.0150748 0.0108622,-0.0329055 0.0053622,-0.0635866l0.174988 -0.00431102c0.00119291,0.00902756 0.00401969,0.0175591 0.00519291,0.0265669 0.00603937,0.0465236 -0.001,0.0230551 0.0188189,0.0730079z"/>
     <path id="_419093616" class="fil13" d="M3.77618 1.58011c0,0 -0.0867047,-0.0122953 -0.109327,0.096685 -0.0226181,0.10898 -0.0884213,0.250874 -0.0884213,0.250874 0,0 0.169386,0.036315 0.152169,0.0349567 -0.0172205,-0.00135433 0.0455787,-0.382516 0.0455787,-0.382516z"/>
     <path id="_419093568" class="fil10" d="M3.66171 2.94172c0,0 0.0133622,0.0308425 0.0133622,0.0534606 0,0.022622 -0.0400945,0.0503819 -0.0400945,0.0503819l-0.156283 0 0.0627165 -0.0421535c0,0 0.0411339,-0.0159409 0.0395906,-0.0622087l0.0807087 0.000519685z"/>
     <path id="_419093424" class="fil14" d="M3.68793 2.99826l0 0.0740276 -0.285831 0c0,0 0.0136024,-0.0751693 0.149717,-0.0745984 0,0 0.0497244,0.0355276 0.123252,-0.00251575l0.0128622 0.00308661z"/>
     <path id="_419092920" class="fil10" d="M3.9532 2.92424l-0.0246772 0.0565472c0,0 0.084311,0.0452402 0.11824,-0.00205512l-0.00822835 -0.0544921 -0.0853346 0z"/>
     <path id="_419092512" class="fil14" d="M4.04677 2.97873c0,0 0.0524331,0.0534685 0.0215906,0.0812244 -0.0308425,0.0277559 -0.110012,0.00616535 -0.110012,0.00616535 0,0 -0.052437,-0.00307874 -0.0298189,-0.0853346l0.0267323 -0.00411024c0,0 0.0812244,-0.00308661 0.0915079,0.00205512z"/>
     <path id="_419092728" class="fil15" d="M3.51244 2.22031l0.670783 0.00528346 -0.182717 0.240406c0,0 -0.0809134,0.0158268 -0.367669,-0.0515 -0.286756,-0.0673307 -0.140756,-0.0591024 -0.140756,-0.0591024l0.0203583 -0.135087z"/>
     <path id="_419093088" class="fil16" d="M3.69011 2.22171c0,0 0.0512598,-0.482421 0.0409764,-0.634591 0,0 0.0756024,-0.0275394 0.14963,-0.0213661 0.14239,0.0118661 0.31137,-0.0365079 0.337236,0.154224 0.0164528,0.121323 0.00616929,0.236476 0.00616929,0.236476l-0.131606 -0.00205512 0.0215866 0.175815 -0.260118 0.0174764 -0.144224 0.087248 -0.0196496 -0.0132283z"/>
     <path id="_419092488" class="fil17" d="M3.86033 1.56513c0.00678346,-0.000129921 0.0135984,5.51181e-005 0.0203819,0.000622047 0.0287913,0.00240157 0.063185,0.00137795 0.0985748,0.00140945 -0.0425512,0.0661142 -0.141559,0.202205 -0.118957,-0.0020315z"/>
     <path id="_419092320" class="fil10" d="M4.22207 1.9544c0,0 -0.00617323,0.209748 -0.0534685,0.265268 -0.0472913,0.0555157 -0.378362,-0.0514094 -0.378362,-0.0514094l0.0493504 -0.043185 0.259102 0 -0.00617323 -0.170673 0.129551 0z"/>
     <path id="_419092440" class="fil18" d="M3.55683 2.96227l-0.151713 -0.484783c-0.0174528,-0.0557717 -0.0346299,-0.090937 -0.0267283,-0.150827 0.0239173,-0.181102 0.248276,-0.14222 0.256583,0.119472 0.0041063,0.129551 0.0390669,0.512028 0.0390669,0.512028l-0.117209 0.00411024z"/>
     <path id="_419092392" class="fil18" d="M3.93676 2.93657c0.0102835,-0.0205669 0.0760787,-0.572685 0.0760787,-0.572685 0.0171339,-0.194854 0.270354,-0.221201 0.19124,0.041126 -0.0390709,0.129547 -0.137772,0.539783 -0.137772,0.539783l-0.129547 -0.00822441z"/>
     <path id="_419091912" class="fil19" d="M3.92132 2.20596l-0.0483189 -0.33824 -0.474256 0 0.0451929 0.329295c-6.69291e-005,0.00325197 -2.75591e-005,0.00622441 0.000114173,0.00894488l0.477268 0z"/>
     <path id="_419091792" class="fil20" d="M3.92132 2.20596l-0.477268 0c0.00120866,0.023815 0.0097126,0.0282874 0.0141732,0.0289764l0.0027126 0 0.679165 0c0.0264016,-0.00234252 0.028189,-0.0289764 0.028189,-0.0289764l-0.0471811 0 -0.179654 0 -0.0201378 0z"/>
    </g>
   </g>
   <g>
    <polygon id="_419091192" class="fil21" points="2.18528,2.53525 3.22082,2.53525 3.23332,2.69733 2.16793,2.69733 "/>
    <g>
     <path id="_419091168" class="fil22" d="M2.20071 2.19491l0.0365236 0.0158425 -0.103886 0.851744c-0.000956693,0.00788189 -0.00482677,0.0130079 -0.00879528,0.0112874l-3.93701e-006 0c-0.0039685,-0.00172047 -0.00642126,-0.00957874 -0.00565748,-0.0175591l0.0818189 -0.861315z"/>
     <path id="_419091216" class="fil22" d="M3.20539 2.19491l-0.0365236 0.0158425 0.103886 0.851744c0.000956693,0.00788189 0.00482677,0.0130079 0.00879528,0.0112874l3.93701e-006 0c0.0039685,-0.00172047 0.00642126,-0.00957874 0.00565748,-0.0175591l-0.0818189 -0.861315z"/>
    </g>
    <rect id="_419091696" class="fil22" x="2.11449" y="2.16859" width="1.17713" height="0.0664935"/>
    <rect id="_419090520" class="fil23" x="2.24636" y="2.23509" width="0.913386" height="0.0872728"/>
   </g>
   <g>
    <g>
     <polygon id="_419090184" class="fil24" points="2.8038,2.10143 2.82013,2.16859 2.84192,2.16859 2.8637,2.16859 2.88004,2.10143 2.84192,2.10143 "/>
     <g>
      <path id="_419090472" class="fil25" d="M2.86411 2.00072c0.0116732,0.00737008 0.0194252,0.0203858 0.0194252,0.0352087 0,0.0229882 -0.0186339,0.041622 -0.041622,0.041622 -0.0229843,0 -0.041622,-0.0186339 -0.041622,-0.041622 0,-0.0148228 0.00775591,-0.0278386 0.0194252,-0.0352087 -0.00374016,-0.00477953 -0.0059685,-0.0107992 -0.0059685,-0.0173425 0,-0.0123228 0.00790945,-0.0227913 0.0189331,-0.0266142 -0.00844882,-0.00359449 -0.0143701,-0.0119724 -0.0143701,-0.0217323 0,-0.00751181 0.00350787,-0.0142008 0.00897638,-0.0185276 -0.00359449,-0.0036811 -0.00580709,-0.0087126 -0.00580709,-0.0142638 0,-0.0112835 0.00914961,-0.0204331 0.0204331,-0.0204331 0.0112835,0 0.0204331,0.00914961 0.0204331,0.0204331 0,0.00555118 -0.0022126,0.0105827 -0.00580709,0.0142638 0.0054685,0.00432677 0.00898031,0.0110157 0.00898031,0.0185276 0,0.00975984 -0.0059252,0.0181378 -0.014374,0.0217323 0.0110236,0.00382283 0.018937,0.0142913 0.018937,0.0266142 0,0.00654331 -0.00223228,0.012563 -0.00597244,0.0173425z"/>
      <g>
       <polygon id="_419090856" class="fil26" points="2.84293,1.90602 2.84293,2.10445 2.84091,2.10445 2.84091,1.90602 "/>
       <polygon id="_419090400" class="fil26" points="2.83414,1.91965 2.84276,1.93258 2.84108,1.93369 2.83246,1.92076 "/>
       <polygon id="_419090760" class="fil26" points="2.84111,1.98436 2.85351,1.96754 2.85513,1.96873 2.84273,1.98555 "/>
       <polygon id="_419090328" class="fil26" points="2.84114,2.06125 2.86006,2.03792 2.86162,2.03919 2.8427,2.06252 "/>
       <polygon id="_419090016" class="fil26" points="2.84106,2.02962 2.83181,2.01427 2.83353,2.01323 2.84278,2.02857 "/>
      </g>
     </g>
     <rect id="_419089968" class="fil27" x="2.7988" y="2.10143" width="0.0862294" height="0.00605669" rx="0.0363071" ry="0.0363071"/>
    </g>
    <g>
     <path id="_419089632" class="fil28" d="M2.68267 2.04511c0,0 -0.0225157,-0.0907992 0.0159803,-0.140189 0,0 0.0377717,-0.0493937 0.0414055,-0.0726378 0,0 0.0428543,-0.026874 0.0384961,0.021063 0,0 -0.0254213,0.0682835 -0.0167047,0.102421 0.0122677,0.0480551 -0.0457402,0.00604331 -0.0602913,0.0842559 -0.00581102,0.0312323 -0.0188858,0.00508661 -0.0188858,0.00508661z"/>
     <path id="_419090064" class="fil28" d="M2.64649 2.02104c0,0 -0.00150394,-0.0805039 -0.0445118,-0.112988 0,0 -0.0424055,-0.0326496 -0.0506024,-0.0511654 0,0 -0.0416142,-0.0127953 -0.027315,0.0260866 0,0 0.0363465,0.0511024 0.0367047,0.0814252 0.000503937,0.042689 0.039374,-0.00516142 0.0688937,0.0566181 0.0117874,0.0246732 0.0168307,2.3622e-005 0.0168307,2.3622e-005z"/>
     <path id="_423475120" class="fil25" d="M2.62746 1.75965c0,0 0.0108976,0.0392244 -0.00362992,0.0631929 -0.0145276,0.0239724 0.00871654,0.0646457 0.0196142,0.0799016 0.0108937,0.0152559 -0.0138031,0.0973346 0.00508268,0.134378 0.0188858,0.0370472 0.0384961,-0.032685 0.0384961,-0.032685 0,0 0.0254252,-0.134382 0.00508661,-0.162709 -0.0203386,-0.0283268 -0.0145276,-0.0653701 -0.0145276,-0.0653701 0,0 -0.0290551,-0.0486693 -0.050122,-0.0167087z"/>
     <path id="_423462352" class="fil29" d="M2.65389 1.79719c2.75591e-005,0.000216535 0.0101929,0.0749685 0.0101929,0.113539 0,0.00890157 -0.000370079,0.0216654 -0.000787402,0.0361417 -0.00133071,0.0462638 -0.00317323,0.110252 0.00499606,0.128768l-0.00318898 0.00140157c-0.00847244,-0.0192126 -0.00661811,-0.0836654 -0.00527953,-0.130268 0.000413386,-0.0142205 0.000771654,-0.0267638 0.000771654,-0.0360433 0,-0.0384252 -0.010122,-0.112874 -0.0101496,-0.113087l0.00344488 -0.000452756z"/>
     <path id="_423455944" class="fil29" d="M2.75321 1.86216c-0.000125984,0.00023622 -0.0440866,0.0823858 -0.043378,0.101531 0.000275591,0.00745669 -0.00317323,0.025189 -0.00784252,0.0452402 -0.00788583,0.0338465 -0.0192677,0.0744961 -0.0220118,0.083189l-0.00332283 -0.00104724c0.00273622,-0.00866535 0.0140827,-0.049185 0.0219449,-0.0829331 0.00461417,-0.0198071 0.00802362,-0.0372283 0.00775984,-0.0443228 -0.000740157,-0.0200748 0.0436614,-0.103067 0.0437874,-0.103303l0.00306299 0.00164567z"/>
     <path id="_423474736" class="fil29" d="M2.54907 1.88079c9.44882e-005,0.000165354 0.0339291,0.057748 0.053878,0.0698622 0.00844094,0.00512205 0.0197559,0.0255354 0.0303898,0.0492047 0.0159449,0.0355039 0.0305709,0.0786496 0.0314567,0.0879449l-0.00346063 0.000326772c-0.000862205,-0.00906299 -0.0153465,-0.0516339 -0.0311693,-0.0868543 -0.0103858,-0.023122 -0.0212638,-0.0429488 -0.0290157,-0.0476575 -0.0207205,-0.0125787 -0.0549764,-0.0708898 -0.0550748,-0.0710551l0.00299606 -0.00177165z"/>
     <polygon id="_423474760" class="fil24" points="2.6093,2.06109 2.63545,2.16859 2.67032,2.16859 2.70519,2.16859 2.73133,2.06109 2.67032,2.06109 "/>
     <rect id="_423474064" class="fil27" x="2.60131" y="2.06109" width="0.13801" height="0.00969374" rx="0.0581102" ry="0.0581102"/>
    </g>
   </g>
   <g>
    <polygon id="_423474352" class="fil30" points="2.88912,3.07412 3.05187,3.07412 3.0774,2.80606 2.86359,2.80606 "/>
    <path id="_423473896" class="fil31" d="M3.04766 3.07412c-0.0399606,-0.0753346 -0.127874,-0.0919331 -0.172469,-0.146248l0.0139252 0.146248 0.158543 0z"/>
    <rect id="_423473872" class="fil32" transform="matrix(0.259819 0.259819 -0.259819 0.259819 3.03763 2.83904)" width="0.0708346" height="0.0708346"/>
    <rect id="_423473920" class="fil32" transform="matrix(0.259819 0.259819 -0.259819 0.259819 3.02576 2.93521)" width="0.0708346" height="0.0708346"/>
    <rect id="_423473728" class="fil32" transform="matrix(0.354919 0.0951003 -0.0951003 0.354919 3.00112 2.88722)" width="0.0708346" height="0.0708346"/>
    <rect id="_423473344" class="fil32" transform="matrix(0.354919 0.0951003 -0.0951003 0.354919 2.96254 2.85041)" width="0.0708346" height="0.0708346"/>
    <rect id="_423473608" class="fil32" transform="matrix(0.354919 0.0951003 -0.0951003 0.354919 2.95476 2.92059)" width="0.0708346" height="0.0708346"/>
    <rect id="_423473464" class="fil32" transform="matrix(9.74315E-015 0.367439 -0.367439 9.74315E-015 2.94375 2.88599)" width="0.0708346" height="0.0708346"/>
   </g>
   <g>
    <path id="_423473056" class="fil16" d="M3.07835 2.16859l0.0464055 0c0.0199134,0 0.0362126,-0.0162992 0.0362126,-0.0362126l0 -0.125508 -0.118831 0 0 0.125508c0,0.0199134 0.0162953,0.0362126 0.0362126,0.0362126z"/>
    <path id="_423473128" class="fil33" d="M3.13609 2.02856l0.0221378 0c0.0100945,0 0.0192835,0.00413386 0.0259252,0.0107756l0 1.5748e-005c0.00664173,0.00664961 0.0107756,0.0158228 0.0107756,0.0259134l0 0.0329409c0,0.0100866 -0.00413386,0.0192638 -0.0107756,0.0259134l0 1.5748e-005c-0.00664173,0.00664173 -0.0158307,0.0107756 -0.0259252,0.0107756l-0.0221378 0 -0.00377559 0 0 -0.00377165 0 -0.0988031 0 -0.00377559 0.00377559 0zm0.0221378 0.00754724l-0.0183661 0 0 0.0912559 0.0183661 0c0.00801181,0 0.0153031,-0.00328346 0.0205866,-0.00856693l7.87402e-006 7.87402e-006c0.00527953,-0.00528346 0.00855906,-0.0125827 0.00855906,-0.0205984l0 -0.0329409c0,-0.00801969 -0.00327953,-0.015311 -0.00855906,-0.0205984l-7.87402e-006 7.87402e-006c-0.00528346,-0.00528346 -0.0125748,-0.00856693 -0.0205866,-0.00856693z"/>
    <circle id="_423472888" class="fil18" cx="3.10156" cy="2.08773" r="0.0201431"/>
    <path id="_423472408" class="fil34" d="M3.10156 2.05373c-0.00938976,0 -0.0178976,0.00381102 -0.0240433,0.00995669 -0.00614961,0.00614961 -0.00995669,0.0146535 -0.00995669,0.0240433 0,0.00938583 0.00380709,0.0178976 0.00995669,0.0240472 0.00614567,0.00614567 0.0146575,0.00995276 0.0240433,0.00995276 0.0093937,0 0.0178976,-0.00380709 0.0240433,-0.00995276 0.00614961,-0.00614961 0.00996063,-0.0146575 0.00996063,-0.0240472 0,-0.00938976 -0.00381102,-0.0178937 -0.00996063,-0.0240433 -0.00614567,-0.00614567 -0.0146496,-0.00995669 -0.0240433,-0.00995669zm-0.0198504 0.0141535c0.00507874,-0.00507874 0.0121024,-0.00822441 0.0198504,-0.00822441 0.00774803,0 0.0147717,0.00314567 0.0198504,0.00822441 0.00507874,0.00507874 0.00822441,0.0120984 0.00822441,0.0198465 0,0.00775197 -0.00314567,0.0147717 -0.00822441,0.0198504 -0.00507874,0.00507874 -0.0120984,0.00822047 -0.0198504,0.00822047 -0.00774803,0 -0.0147717,-0.00314173 -0.0198504,-0.00822047 -0.00507874,-0.00507874 -0.00822047,-0.0120984 -0.00822047,-0.0198504 0,-0.00775197 0.00314173,-0.0147677 0.00822047,-0.0198465z"/>
   </g>
   <g>
    <g>
     <rect id="_423472576" class="fil35" x="2.15781" y="2.09174" width="0.236775" height="0.0768565"/>
     <rect id="_423472504" class="fil32" x="2.24277" y="2.11035" width="0.0951746" height="0.0396306"/>
     <path id="_423472360" class="fil36" d="M2.22114 2.13059c0,-0.0064252 -0.00261417,-0.012252 -0.00683071,-0.0164724l-1.5748e-005 -1.5748e-005c-0.00422047,-0.00421654 -0.0100433,-0.00683071 -0.0164724,-0.00683071 -0.00643307,0 -0.0122638,0.00261417 -0.0164843,0.00683071l0 1.5748e-005c-0.00421654,0.00422047 -0.00683071,0.0100472 -0.00683071,0.0164724 0,0.00643307 0.00261417,0.0122638 0.00683071,0.0164843 0.00422047,0.00421654 0.0100512,0.00683071 0.0164843,0.00683071 0.00642913,0 0.012252,-0.00261417 0.0164724,-0.00683071l1.5748e-005 0c0.00421654,-0.00422047 0.00683071,-0.0100512 0.00683071,-0.0164843zm-0.012315 -0.011c0.00280315,0.00280709 0.00454331,0.00669685 0.00454331,0.011 0,0.00429134 -0.00174409,0.0081811 -0.00455118,0.0109921l7.87402e-006 7.87402e-006c-0.00281102,0.00280709 -0.00670079,0.00454331 -0.0110039,0.00454331 -0.00429134,0 -0.0081811,-0.00174409 -0.0109921,-0.00455118 -0.00280709,-0.00281102 -0.00455118,-0.00670079 -0.00455118,-0.0109921 0,-0.00430315 0.00173622,-0.00819291 0.00454331,-0.011l7.87402e-006 3.93701e-006c0.00281102,-0.00280709 0.00670079,-0.00455118 0.0109921,-0.00455118 0.00430315,0 0.00819291,0.00174016 0.0110039,0.00454724z"/>
     <rect id="_423472768" class="fil37" transform="matrix(-1.02663E-015 -0.0387634 -0.0614718 1.62805E-015 2.37583 2.16859)" width="1.98264" height="0.128472"/>
    </g>
    <g>
     <rect id="_423472720" class="fil38" x="2.20073" y="2.01488" width="0.236775" height="0.0768565"/>
     <rect id="_423471544" class="fil32" x="2.28569" y="2.03349" width="0.0951746" height="0.0396306"/>
     <path id="_423472216" class="fil36" d="M2.26406 2.05288c0,0.0064252 -0.00261024,0.012252 -0.00683071,0.0164724l-1.5748e-005 1.5748e-005c-0.00422047,0.00421654 -0.0100433,0.00683071 -0.0164685,0.00683071 -0.00643701,0 -0.0122677,-0.00261417 -0.0164843,-0.00683071l0 -1.5748e-005c-0.00422047,-0.00422047 -0.00683071,-0.0100472 -0.00683071,-0.0164724 0,-0.00643307 0.00261024,-0.0122638 0.00683071,-0.0164843 0.00421654,-0.00421654 0.0100472,-0.00683071 0.0164843,-0.00683071 0.0064252,0 0.012248,0.00261417 0.0164685,0.00683071l1.5748e-005 0c0.00422047,0.00422047 0.00683071,0.0100512 0.00683071,0.0164843zm-0.012315 0.011c0.00280709,-0.00280709 0.00454331,-0.00670079 0.00454331,-0.011 0,-0.00429134 -0.00174016,-0.0081811 -0.00455118,-0.0109921l7.87402e-006 -7.87402e-006c-0.00281102,-0.00280709 -0.00670079,-0.00454331 -0.011,-0.00454331 -0.00429528,0 -0.00818504,0.00174409 -0.0109921,0.00455118 -0.00281102,0.00281102 -0.00455118,0.00670079 -0.00455118,0.0109921 0,0.00429921 0.00173622,0.00819291 0.00454331,0.011l7.87402e-006 -3.93701e-006c0.00280709,0.00280709 0.00669685,0.00455118 0.0109921,0.00455118 0.00429921,0 0.00818898,-0.00174016 0.011,-0.00454724z"/>
     <rect id="_423471832" class="fil39" transform="matrix(-1.02663E-015 0.0387634 -0.0614718 -1.62805E-015 2.41875 2.01488)" width="1.98264" height="0.128472"/>
    </g>
    <g>
     <rect id="_423471760" class="fil40" x="2.15781" y="1.93802" width="0.236775" height="0.0768565"/>
     <rect id="_423471784" class="fil32" x="2.24277" y="1.95663" width="0.0951746" height="0.0396306"/>
     <path id="_423472048" class="fil36" d="M2.22114 1.97688c0,-0.0064252 -0.00261417,-0.012252 -0.00683071,-0.0164724l-1.5748e-005 -1.5748e-005c-0.00422047,-0.00421654 -0.0100433,-0.00683071 -0.0164724,-0.00683071 -0.00643307,0 -0.0122638,0.00261417 -0.0164843,0.00683071l0 1.5748e-005c-0.00421654,0.00422047 -0.00683071,0.0100472 -0.00683071,0.0164724 0,0.00643701 0.00261417,0.0122677 0.00683071,0.0164843 0.00422047,0.00422047 0.0100512,0.00683071 0.0164843,0.00683071 0.00642913,0 0.012252,-0.00261024 0.0164724,-0.00683071l1.5748e-005 0c0.00421654,-0.00421654 0.00683071,-0.0100472 0.00683071,-0.0164843zm-0.012315 -0.011c0.00280315,0.00281102 0.00454331,0.00670079 0.00454331,0.011 0,0.00429134 -0.00174409,0.00818504 -0.00455118,0.0109921l7.87402e-006 7.87402e-006c-0.00281102,0.00280709 -0.00670079,0.00454331 -0.0110039,0.00454331 -0.00429134,0 -0.0081811,-0.00174409 -0.0109921,-0.00455118 -0.00280709,-0.00280709 -0.00455118,-0.00670079 -0.00455118,-0.0109921 0,-0.00429921 0.00173622,-0.00818898 0.00454331,-0.011l7.87402e-006 7.87402e-006c0.00281102,-0.00281102 0.00670079,-0.00455118 0.0109921,-0.00455118 0.00430315,0 0.00819291,0.00173622 0.0110039,0.00454331z"/>
     <rect id="_423471304" class="fil41" transform="matrix(-1.02663E-015 -0.0387634 -0.0614718 1.62805E-015 2.37583 2.01488)" width="1.98264" height="0.128472"/>
    </g>
   </g>
  </g>
 </g>
</svg>
